<?xml version="1.0" encoding="utf-8"?>
<!-- Generator: Adobe Illustrator 23.0.2, SVG Export Plug-In . SVG Version: 6.00 Build 0)  -->
<svg version="1.1" xmlns="http://www.w3.org/2000/svg" xmlns:xlink="http://www.w3.org/1999/xlink" x="0px" y="0px"
	 viewBox="0 0 80.79 80.79" style="enable-background:new 0 0 80.79 80.79;" xml:space="preserve">
<style type="text/css">
	.st0{fill:#FFFFFF;}
	.st1{fill:#002D3A;}
	.st2{display:none;}
	.st3{display:inline;fill:none;stroke:#52AFDA;stroke-miterlimit:10;}
</style>
<g id="Layer_1">
</g>
<g id="Layer_3">
	<g>
		<path class="st0" d="M11.57,26.22l-0.99,2.21l0.83,0.92l-0.27,0.61l-3.31-3.74l0.26-0.59l5-0.03l-0.28,0.62L11.57,26.22z
			 M11,26.21L8.57,26.2L10.2,28L11,26.21z"/>
		<path class="st0" d="M14.6,21.25l-1.37,1.99l0.65,1.06l-0.38,0.55l-2.58-4.27l0.36-0.53l4.92,0.87l-0.39,0.56L14.6,21.25z
			 M14.05,21.15l-2.39-0.45l1.28,2.07L14.05,21.15z"/>
		<path class="st0" d="M13.94,16.68l0.45-0.47l2.87,2.76l1.71-1.78l0.41,0.39l-2.16,2.24L13.94,16.68z"/>
		<path class="st0" d="M18.49,13.17l-1.22,0.97l-0.35-0.44l2.95-2.33l0.35,0.44l-1.22,0.97l2.47,3.13l-0.5,0.4L18.49,13.17z"/>
		<path class="st0" d="M24.44,13.54c-0.42,0-0.81-0.11-1.16-0.32s-0.64-0.51-0.84-0.9c-0.21-0.38-0.31-0.78-0.29-1.2
			c0.01-0.41,0.14-0.79,0.36-1.15c0.23-0.35,0.54-0.64,0.95-0.86c0.4-0.22,0.81-0.32,1.23-0.32s0.81,0.11,1.16,0.32
			c0.35,0.21,0.63,0.51,0.84,0.9c0.21,0.39,0.31,0.79,0.29,1.2c-0.01,0.41-0.13,0.79-0.36,1.14c-0.23,0.35-0.54,0.64-0.94,0.85
			C25.27,13.43,24.86,13.54,24.44,13.54z M26.08,12.08c0.16-0.26,0.25-0.54,0.25-0.85c0.01-0.31-0.07-0.61-0.22-0.9
			c-0.16-0.29-0.37-0.51-0.63-0.67c-0.26-0.16-0.55-0.24-0.85-0.25s-0.61,0.07-0.9,0.23c-0.29,0.16-0.52,0.37-0.69,0.63
			s-0.25,0.55-0.26,0.86s0.07,0.61,0.22,0.9c0.16,0.29,0.37,0.51,0.63,0.67c0.26,0.16,0.55,0.24,0.86,0.25s0.61-0.07,0.91-0.23
			S25.92,12.34,26.08,12.08z"/>
		<path class="st0" d="M28.56,9.56l1.65-0.58l0.18,0.51l-1.65,0.58L28.56,9.56z"/>
		<path class="st0" d="M33.83,8.52l0.33,1.54l-0.63,0.13L33.2,8.65l-2.39-2.52l0.68-0.15l1.93,2.04l0.92-2.65l0.63-0.14L33.83,8.52z
			"/>
		<path class="st0" d="M37.04,5.02l0.65-0.04l0.23,3.98l2.46-0.14l0.03,0.57l-3.11,0.18L37.04,5.02z"/>
		<path class="st0" d="M42.29,4.94l0.65,0.04l-0.28,4.54l-0.65-0.04L42.29,4.94z"/>
		<path class="st0" d="M45.66,9.61c-0.32-0.27-0.54-0.61-0.68-1c-0.13-0.39-0.15-0.8-0.06-1.23c0.09-0.43,0.28-0.79,0.55-1.1
			c0.28-0.3,0.62-0.52,1.02-0.64c0.4-0.12,0.83-0.13,1.28-0.04c0.45,0.09,0.83,0.28,1.15,0.55c0.32,0.27,0.54,0.6,0.67,0.99
			c0.13,0.39,0.15,0.8,0.06,1.23c-0.09,0.43-0.28,0.8-0.55,1.1s-0.62,0.51-1.02,0.63s-0.83,0.13-1.27,0.04
			C46.37,10.06,45.98,9.88,45.66,9.61z M47.86,9.55c0.29-0.09,0.54-0.25,0.75-0.48c0.21-0.23,0.34-0.5,0.41-0.83
			s0.05-0.63-0.04-0.92c-0.1-0.29-0.26-0.54-0.49-0.74s-0.51-0.34-0.83-0.41c-0.33-0.07-0.64-0.06-0.93,0.04
			c-0.3,0.09-0.55,0.25-0.75,0.48c-0.21,0.23-0.34,0.5-0.41,0.83s-0.05,0.63,0.04,0.92c0.1,0.29,0.26,0.54,0.49,0.75
			c0.23,0.2,0.51,0.34,0.84,0.41C47.26,9.66,47.57,9.65,47.86,9.55z"/>
		<path class="st0" d="M55.34,8.61c0.2,0.39,0.21,0.81,0.02,1.27c-0.19,0.46-0.5,0.75-0.92,0.88s-0.9,0.08-1.45-0.15l-1.04-0.44
			l-0.53,1.27l-0.6-0.25l1.76-4.2l1.64,0.69C54.76,7.91,55.13,8.22,55.34,8.61z M54.16,10.2c0.27-0.08,0.46-0.27,0.59-0.57
			c0.13-0.3,0.12-0.58-0.01-0.82c-0.13-0.25-0.39-0.45-0.77-0.61l-1.02-0.43l-0.79,1.88l1.02,0.43
			C53.57,10.23,53.89,10.28,54.16,10.2z"/>
		<path class="st0" d="M58.06,9.59l0.56,0.33l-2.3,3.92l-0.56-0.33L58.06,9.59z"/>
		<path class="st0" d="M58.48,15.12c-0.19-0.28-0.3-0.54-0.34-0.79l0.5-0.26c0.04,0.23,0.14,0.46,0.3,0.71
			c0.16,0.24,0.35,0.45,0.57,0.62c0.3,0.23,0.56,0.35,0.79,0.36s0.4-0.07,0.53-0.23c0.09-0.12,0.13-0.26,0.11-0.39
			c-0.02-0.14-0.08-0.28-0.16-0.41c-0.09-0.13-0.22-0.31-0.4-0.52c-0.22-0.27-0.39-0.51-0.51-0.7s-0.18-0.4-0.2-0.63
			c-0.01-0.23,0.07-0.46,0.24-0.69c0.15-0.19,0.33-0.33,0.55-0.4c0.22-0.08,0.47-0.08,0.75-0.02c0.28,0.06,0.57,0.21,0.88,0.45
			c0.21,0.16,0.4,0.35,0.57,0.57s0.28,0.43,0.35,0.64l-0.49,0.28c-0.08-0.21-0.18-0.41-0.32-0.59s-0.28-0.34-0.45-0.46
			c-0.29-0.22-0.55-0.34-0.78-0.34c-0.23-0.01-0.41,0.08-0.54,0.24c-0.09,0.12-0.13,0.26-0.11,0.4c0.02,0.14,0.08,0.28,0.17,0.42
			s0.22,0.31,0.39,0.52c0.22,0.27,0.39,0.51,0.5,0.7c0.12,0.19,0.18,0.4,0.2,0.63c0.02,0.22-0.06,0.45-0.24,0.68
			c-0.14,0.19-0.33,0.32-0.55,0.4c-0.22,0.08-0.47,0.08-0.75,0.01c-0.28-0.07-0.57-0.22-0.88-0.46
			C58.9,15.64,58.67,15.39,58.48,15.12z"/>
		<path class="st0" d="M65.35,15.94l-1.08-1.12l0.41-0.39l2.61,2.71l-0.41,0.39L65.8,16.4l-2.87,2.76l-0.45-0.46L65.35,15.94z"/>
		<path class="st0" d="M65.57,21.92c-0.04-0.42,0.03-0.81,0.21-1.19s0.45-0.68,0.81-0.93c0.36-0.25,0.75-0.38,1.16-0.41
			c0.41-0.02,0.8,0.06,1.18,0.25s0.69,0.48,0.95,0.86c0.25,0.38,0.4,0.77,0.44,1.19s-0.03,0.81-0.21,1.18
			c-0.18,0.37-0.45,0.68-0.81,0.93s-0.75,0.38-1.16,0.41c-0.41,0.03-0.8-0.06-1.17-0.25s-0.69-0.48-0.94-0.85
			C65.76,22.74,65.61,22.34,65.57,21.92z M67.19,23.41c0.27,0.14,0.57,0.19,0.87,0.17s0.6-0.12,0.87-0.31
			c0.27-0.18,0.48-0.41,0.61-0.69c0.13-0.28,0.19-0.57,0.17-0.87s-0.13-0.6-0.32-0.87c-0.19-0.28-0.42-0.49-0.7-0.62
			c-0.28-0.14-0.57-0.2-0.88-0.18c-0.31,0.02-0.6,0.12-0.87,0.31c-0.27,0.18-0.48,0.42-0.61,0.69c-0.13,0.28-0.19,0.57-0.16,0.88
			c0.03,0.31,0.13,0.6,0.32,0.88C66.69,23.07,66.92,23.28,67.19,23.41z"/>
		<path class="st0" d="M73.9,28.47l-4.2,1.76l-0.21-0.49l2.07-3.83l-3.13,1.31l-0.25-0.6l4.2-1.76l0.21,0.49l-2.07,3.83l3.13-1.31
			L73.9,28.47z"/>
	</g>
	<g>
		<path class="st0" d="M5.48,46.18c0.03-0.35,0.1-0.64,0.22-0.87l0.85,0.2c-0.1,0.22-0.17,0.47-0.2,0.75s-0.02,0.55,0.03,0.82
			c0.06,0.29,0.14,0.5,0.26,0.62c0.12,0.12,0.25,0.17,0.39,0.14c0.11-0.02,0.19-0.08,0.24-0.18s0.09-0.21,0.11-0.35
			c0.02-0.14,0.03-0.32,0.04-0.55c0.01-0.36,0.04-0.65,0.08-0.88c0.04-0.23,0.13-0.44,0.28-0.63c0.15-0.19,0.37-0.31,0.67-0.37
			c0.26-0.05,0.51-0.03,0.75,0.07c0.24,0.1,0.45,0.28,0.63,0.54c0.18,0.26,0.31,0.59,0.39,1c0.06,0.29,0.08,0.57,0.06,0.86
			c-0.01,0.29-0.07,0.54-0.15,0.77l-0.85-0.17c0.15-0.46,0.19-0.89,0.11-1.31c-0.06-0.29-0.15-0.49-0.27-0.61
			c-0.12-0.12-0.26-0.16-0.41-0.13c-0.15,0.03-0.25,0.13-0.29,0.31s-0.07,0.43-0.08,0.77c-0.01,0.36-0.04,0.65-0.08,0.88
			c-0.04,0.23-0.13,0.44-0.27,0.63C7.82,48.67,7.6,48.8,7.3,48.86c-0.26,0.05-0.5,0.02-0.74-0.08c-0.24-0.1-0.45-0.28-0.63-0.54
			c-0.18-0.26-0.31-0.59-0.39-1C5.47,46.88,5.45,46.53,5.48,46.18z"/>
		<path class="st0" d="M8.49,53.46l-0.74-1.98l-1.05-0.04l-0.38-1.01l4.97,0.3l0.37,0.97l-3.55,3.5l-0.39-1.03L8.49,53.46z
			 M9.12,52.87l1.38-1.29l-1.88-0.06L9.12,52.87z M11.62,50.12c0.05-0.11,0.13-0.19,0.25-0.23c0.12-0.05,0.24-0.04,0.35,0.01
			c0.11,0.05,0.19,0.14,0.23,0.26c0.05,0.12,0.04,0.24-0.01,0.35c-0.05,0.11-0.13,0.19-0.26,0.23c-0.12,0.05-0.24,0.04-0.35-0.01
			c-0.11-0.05-0.19-0.13-0.23-0.26S11.57,50.23,11.62,50.12z M12.08,51.35c0.05-0.11,0.13-0.19,0.26-0.23
			c0.12-0.05,0.24-0.04,0.35,0.01c0.11,0.05,0.19,0.13,0.23,0.26c0.05,0.12,0.04,0.24,0,0.35c-0.05,0.11-0.13,0.19-0.25,0.23
			c-0.12,0.05-0.24,0.04-0.35-0.01c-0.11-0.05-0.19-0.14-0.23-0.26S12.03,51.46,12.08,51.35z"/>
		<path class="st0" d="M14.94,58.01l-3.9,2.34l-0.54-0.9l1.6-0.96l-1.06-1.77l-1.6,0.96l-0.54-0.9l3.9-2.34l0.54,0.9l-1.54,0.92
			l1.06,1.77l1.54-0.92L14.94,58.01z"/>
		<path class="st0" d="M14.85,62.29l-0.88-0.04L13.1,63l-0.69-0.79l3.43-2.98l0.69,0.79l-1.6,1.39l2.93,0.13l0.77,0.88l-2.77-0.09
			l-0.59,3.16l-0.81-0.93L14.85,62.29z"/>
		<path class="st0" d="M17.29,66.98c-0.17-0.4-0.22-0.8-0.16-1.21c0.06-0.41,0.23-0.79,0.51-1.14c0.28-0.35,0.62-0.59,1.01-0.74
			c0.39-0.14,0.8-0.17,1.22-0.09s0.82,0.27,1.19,0.56s0.63,0.64,0.8,1.04c0.17,0.39,0.22,0.8,0.16,1.21
			c-0.06,0.41-0.22,0.79-0.5,1.14c-0.28,0.35-0.62,0.59-1.01,0.73c-0.39,0.14-0.8,0.17-1.22,0.1c-0.42-0.08-0.82-0.27-1.18-0.56
			S17.46,67.38,17.29,66.98z M19.34,67.64c0.25,0.04,0.49,0.01,0.72-0.08c0.24-0.09,0.44-0.25,0.62-0.47
			c0.18-0.22,0.29-0.45,0.33-0.7c0.04-0.25,0.02-0.49-0.07-0.72c-0.09-0.23-0.24-0.43-0.45-0.6s-0.44-0.27-0.68-0.31
			s-0.49-0.01-0.72,0.08c-0.24,0.09-0.44,0.25-0.62,0.47c-0.18,0.22-0.29,0.45-0.33,0.7c-0.04,0.25-0.02,0.49,0.07,0.72
			c0.09,0.23,0.24,0.43,0.45,0.6C18.87,67.49,19.09,67.6,19.34,67.64z M20.57,63.4c-0.01-0.12,0.02-0.23,0.1-0.33
			c0.08-0.1,0.18-0.16,0.3-0.17c0.12-0.01,0.23,0.02,0.33,0.11c0.1,0.08,0.16,0.18,0.17,0.3c0.01,0.12-0.02,0.23-0.1,0.33
			c-0.08,0.1-0.18,0.16-0.3,0.17s-0.23-0.02-0.33-0.1C20.64,63.62,20.59,63.52,20.57,63.4z M21.6,64.22
			c-0.01-0.12,0.02-0.23,0.1-0.33c0.08-0.1,0.18-0.16,0.3-0.17c0.12-0.01,0.23,0.02,0.33,0.1c0.1,0.08,0.16,0.18,0.17,0.3
			c0.01,0.12-0.02,0.23-0.1,0.33c-0.08,0.1-0.18,0.16-0.3,0.17c-0.12,0.01-0.23-0.02-0.33-0.11S21.61,64.34,21.6,64.22z"/>
		<path class="st0" d="M24.07,66.61l0.9,0.54l-2.34,3.9l-0.9-0.54L24.07,66.61z"/>
		<path class="st0" d="M30.18,69.62l-1.79,4.18l-0.79-0.34l-1-3.43l-1.09,2.54l-0.96-0.41l1.79-4.18l0.8,0.34l0.99,3.43l1.09-2.54
			L30.18,69.62z"/>
		<path class="st0" d="M31.06,74.52c-0.3-0.17-0.54-0.36-0.7-0.56l0.53-0.69c0.16,0.18,0.35,0.35,0.6,0.5
			c0.24,0.15,0.49,0.25,0.75,0.31c0.29,0.07,0.52,0.08,0.68,0.03c0.16-0.05,0.26-0.15,0.29-0.29c0.03-0.11,0-0.2-0.06-0.29
			c-0.07-0.09-0.16-0.17-0.28-0.24c-0.12-0.07-0.28-0.16-0.49-0.26c-0.32-0.16-0.58-0.31-0.77-0.44c-0.2-0.13-0.35-0.3-0.46-0.52
			s-0.13-0.47-0.06-0.76c0.06-0.26,0.19-0.47,0.38-0.65s0.44-0.29,0.75-0.35c0.31-0.05,0.67-0.03,1.07,0.06
			c0.28,0.07,0.55,0.17,0.8,0.3c0.25,0.13,0.47,0.29,0.64,0.46l-0.5,0.7c-0.35-0.33-0.73-0.54-1.14-0.64
			c-0.29-0.07-0.51-0.07-0.67-0.01s-0.26,0.17-0.29,0.32c-0.04,0.15,0.02,0.28,0.16,0.4c0.14,0.11,0.36,0.24,0.67,0.39
			c0.32,0.16,0.57,0.31,0.77,0.44c0.2,0.13,0.35,0.3,0.46,0.51c0.11,0.21,0.13,0.46,0.06,0.76c-0.06,0.25-0.19,0.47-0.38,0.64
			c-0.19,0.17-0.44,0.29-0.75,0.34s-0.67,0.03-1.07-0.06C31.69,74.82,31.36,74.7,31.06,74.52z"/>
		<path class="st0" d="M36.27,71l1.05,0.12l-0.52,4.52l-1.05-0.12L36.27,71z"/>
		<path class="st0" d="M43.05,71.23l0.08,4.55l-0.86,0.02l-2.32-2.72l0.05,2.76l-1.04,0.02l-0.08-4.55l0.87-0.02l2.31,2.72
			l-0.05-2.76L43.05,71.23z"/>
		<path class="st0" d="M46.35,75.11c-0.41-0.12-0.76-0.34-1.04-0.64c-0.28-0.31-0.47-0.68-0.56-1.12c-0.09-0.44-0.07-0.85,0.07-1.25
			c0.14-0.39,0.37-0.73,0.7-1c0.33-0.28,0.73-0.46,1.19-0.56c0.46-0.1,0.9-0.08,1.31,0.04c0.41,0.12,0.76,0.34,1.04,0.64
			c0.29,0.31,0.47,0.68,0.56,1.11c0.09,0.44,0.07,0.85-0.07,1.25c-0.14,0.39-0.37,0.73-0.7,1.01c-0.33,0.28-0.72,0.46-1.19,0.56
			C47.2,75.25,46.76,75.24,46.35,75.11z M45.65,70.3c-0.1-0.07-0.17-0.16-0.19-0.29c-0.03-0.13-0.01-0.24,0.06-0.34
			c0.07-0.1,0.17-0.16,0.29-0.19s0.24-0.01,0.34,0.06s0.16,0.16,0.19,0.29c0.03,0.13,0.01,0.24-0.06,0.34
			c-0.07,0.1-0.16,0.16-0.29,0.19C45.86,70.39,45.75,70.37,45.65,70.3z M48.15,73.95c0.19-0.17,0.32-0.37,0.39-0.61
			c0.08-0.24,0.08-0.5,0.03-0.78s-0.17-0.51-0.33-0.7c-0.17-0.19-0.37-0.33-0.6-0.4s-0.49-0.09-0.75-0.03
			c-0.26,0.05-0.49,0.16-0.68,0.33c-0.19,0.17-0.32,0.37-0.39,0.61c-0.08,0.24-0.08,0.5-0.03,0.78c0.06,0.28,0.17,0.51,0.33,0.7
			c0.17,0.19,0.37,0.33,0.6,0.4c0.24,0.08,0.49,0.09,0.75,0.03C47.74,74.22,47.96,74.11,48.15,73.95z M46.94,70.04
			c-0.1-0.07-0.16-0.16-0.19-0.29c-0.03-0.13-0.01-0.24,0.06-0.34c0.07-0.1,0.16-0.16,0.29-0.19c0.13-0.03,0.24-0.01,0.34,0.06
			c0.1,0.07,0.17,0.16,0.19,0.29c0.03,0.13,0.01,0.24-0.06,0.34c-0.07,0.1-0.17,0.16-0.29,0.19C47.15,70.12,47.04,70.1,46.94,70.04z
			"/>
		<path class="st0" d="M52.87,73.34c-0.43-0.04-0.81-0.18-1.15-0.43c-0.34-0.25-0.59-0.57-0.76-0.99c-0.17-0.41-0.23-0.82-0.17-1.24
			c0.06-0.41,0.22-0.79,0.49-1.12s0.62-0.59,1.06-0.78c0.44-0.18,0.87-0.25,1.29-0.21c0.43,0.04,0.81,0.18,1.15,0.43
			c0.34,0.25,0.59,0.57,0.77,0.98c0.17,0.41,0.23,0.82,0.17,1.24c-0.06,0.41-0.23,0.79-0.49,1.12c-0.27,0.33-0.62,0.59-1.06,0.78
			C53.73,73.31,53.3,73.38,52.87,73.34z M51.26,68.76c-0.11-0.04-0.19-0.13-0.25-0.25s-0.05-0.24,0-0.35
			c0.05-0.11,0.13-0.19,0.25-0.24s0.24-0.05,0.35-0.01s0.19,0.13,0.24,0.25c0.05,0.12,0.05,0.24,0.01,0.35s-0.13,0.19-0.25,0.24
			C51.49,68.8,51.37,68.8,51.26,68.76z M54.42,71.85c0.15-0.2,0.24-0.42,0.27-0.67c0.03-0.25-0.01-0.51-0.12-0.77
			s-0.26-0.47-0.46-0.62c-0.2-0.16-0.42-0.25-0.67-0.28c-0.25-0.03-0.5,0.01-0.74,0.11c-0.25,0.1-0.45,0.25-0.6,0.45
			c-0.15,0.2-0.24,0.42-0.27,0.67c-0.03,0.25,0.01,0.51,0.12,0.77c0.11,0.26,0.26,0.47,0.46,0.62c0.2,0.16,0.42,0.25,0.67,0.28
			c0.25,0.03,0.5-0.01,0.74-0.11C54.07,72.2,54.26,72.05,54.42,71.85z M52.47,68.24c-0.11-0.04-0.19-0.13-0.24-0.25
			c-0.05-0.12-0.05-0.24-0.01-0.35c0.04-0.11,0.13-0.19,0.25-0.24c0.12-0.05,0.24-0.05,0.35-0.01c0.11,0.04,0.19,0.13,0.25,0.25
			c0.05,0.12,0.05,0.24,0,0.35s-0.13,0.19-0.25,0.24C52.7,68.29,52.58,68.29,52.47,68.24z"/>
		<path class="st0" d="M60.64,69.49l-1.43-0.58l-0.04,0.03l-0.77,0.5l0.69,1.06l-0.88,0.58l-2.49-3.81l1.65-1.08
			c0.34-0.22,0.67-0.36,0.99-0.41s0.62-0.02,0.89,0.1s0.5,0.32,0.68,0.6c0.19,0.28,0.28,0.57,0.27,0.87s-0.09,0.58-0.27,0.85
			l1.65,0.67L60.64,69.49z M58.51,66.72c-0.21-0.02-0.45,0.05-0.72,0.22l-0.72,0.47l0.87,1.33l0.72-0.47
			c0.26-0.17,0.43-0.36,0.49-0.57c0.06-0.21,0.02-0.41-0.11-0.62C58.9,66.86,58.72,66.74,58.51,66.72z"/>
		<path class="st0" d="M60.06,64.2l0.8-0.68l2.96,3.46l-0.8,0.68L60.06,64.2z"/>
		<path class="st0" d="M65.23,63.09l0.06,0.88l0.85,0.77l-0.7,0.78l-3.38-3.05l0.7-0.78l1.58,1.42l-0.23-2.92l0.78-0.87l0.24,2.76
			l3.21,0.21l-0.82,0.91L65.23,63.09z"/>
		<path class="st0" d="M65.5,58.39l0.6-0.87l3.74,2.59l-0.6,0.87L65.5,58.39z"/>
		<path class="st0" d="M66.99,56.15l0.5-0.93l3.26,1.74l1.07-2.01l0.76,0.4l-1.57,2.94L66.99,56.15z"/>
		<path class="st0" d="M69.95,52l-0.51,1.36l-0.8-0.3l1.39-3.71l0.8,0.3l-0.51,1.36l3.46,1.29l-0.37,0.99L69.95,52z"/>
		<path class="st0" d="M74.36,46.33l-0.43,2.07l0.87,0.59l-0.22,1.06l-4.05-2.9l0.21-1.02l4.87-1.08l-0.22,1.08L74.36,46.33z
			 M73.51,46.5l-1.85,0.36l1.56,1.06L73.51,46.5z"/>
	</g>
	<g>
		<g>
			<polygon class="st0" points="44.72,57.55 44.72,55.1 40.44,57.52 40.44,59.94 			"/>
		</g>
		<path class="st0" d="M40.44,52.22l-1.88-1.05c-1.53-1.02-3.43-2.75-3.54-5.06h-0.01c0-0.07,0-0.13,0-0.2c0,0,0,0,0,0h0
			c0.12-2.9,2.5-5.21,5.42-5.21v-0.66v-0.5V26.77c-7.17,0-13.01,5.67-13.3,12.76h0c0,0,0,0,0,0.01c-0.01,0.16,0.01,0.49,0.01,0.49
			c0.27,5.71,5.06,9.99,8.82,12.48c0.03,0.02,4.47,2.59,4.47,2.59L40.44,52.22z"/>
		<path class="st0" d="M63.59,40.36c0-1.91-0.23-3.77-0.67-5.54l3.23-1.83c-0.2-0.68-0.42-1.36-0.67-2.03l-14.41,8.16l-2.13-1.21
			l15.69-8.95c-0.01-0.03-0.03-0.06-0.04-0.09l-0.98-1.73l-16.79,9.58l-2.1-1.19l0,0l17.86-10.17c-0.39-0.58-0.81-1.15-1.25-1.7
			l-16.61,9.45l0-2.39l15.25-8.63c-0.21-0.22-0.42-0.44-0.63-0.65c-0.3-0.3-0.61-0.59-0.92-0.88l-3.35,1.9
			c-2.42-1.98-5.26-3.48-8.36-4.35v-3.77c-2.06-0.5-4.17-0.75-6.33-0.75c-2.12,0-4.2,0.24-6.22,0.72l0,3.79
			c-3.84,1.08-7.28,3.13-10.03,5.86l-3.33-1.88c-2.17,2.31-3.89,4.96-5.13,7.88c-0.42,0.99-0.78,2-1.07,3.03l3.35,1.89
			c-0.43,1.76-0.66,3.6-0.66,5.49c0,1.9,0.23,3.75,0.66,5.52l-3.36,1.9c0.29,1.03,0.65,2.04,1.07,3.03
			c1.23,2.92,2.96,5.57,5.13,7.88l3.35-1.9c2.75,2.72,6.17,4.76,10,5.83l0,3.83c2.02,0.48,4.1,0.72,6.22,0.72c0.1,0,0.2,0,0.3,0
			l4.04-2.27l0-4.96l-4.28,2.41l0-2.43l-6.27-2.37c-7.02-2.56-12.04-9.29-12.04-17.19c0-10.1,8.19-18.29,18.29-18.29
			c3.7,0,7.14,1.1,10.02,2.99l-5.74,3.25v0l0,0l-2.08-1.25v2.42v21.67v2.42l2.08-1.25l0,0v0l0,0v0l13.82,7.78
			c0.27-0.25,0.54-0.51,0.8-0.77c0.25-0.25,0.5-0.51,0.74-0.77l-15.36-8.65l0-2.4l16.72,9.44c0.44-0.55,0.85-1.12,1.24-1.71
			L44.71,45.13v0l2.12-1.2l16.94,9.57c0.34-0.61,0.66-1.23,0.95-1.87l-15.76-8.9l2.11-1.2l14.45,8.17c0.25-0.67,0.47-1.35,0.66-2.03
			l-3.25-1.84C63.36,44.08,63.59,42.25,63.59,40.36z M46.83,41.52l-2.12-1.19v0l2.11-1.2l2.12,1.2L46.83,41.52z M58.51,43.33
			l-5.31-3l5.3-3c0.17,0.99,0.25,2,0.25,3.04C58.75,41.37,58.67,42.36,58.51,43.33z"/>
	</g>
</g>
<g id="guides" class="st2">
</g>
</svg>
