<?xml version="1.0" encoding="UTF-8" standalone="no"?>
<!-- Generator: Adobe Illustrator 23.0.2, SVG Export Plug-In . SVG Version: 6.00 Build 0)  -->

<svg
   version="1.1"
   x="0px"
   y="0px"
   viewBox="0 0 70.1435 70.919997"
   xml:space="preserve"
   id="svg37"
   sodipodi:docname="SIK.svg"
   width="70.143501"
   height="70.919998"
   inkscape:version="1.4.1 (93de688d07, 2025-03-30)"
   xmlns:inkscape="http://www.inkscape.org/namespaces/inkscape"
   xmlns:sodipodi="http://sodipodi.sourceforge.net/DTD/sodipodi-0.dtd"
   xmlns="http://www.w3.org/2000/svg"
   xmlns:svg="http://www.w3.org/2000/svg"><defs
   id="defs37" /><sodipodi:namedview
   id="namedview37"
   pagecolor="#505050"
   bordercolor="#eeeeee"
   borderopacity="1"
   inkscape:showpageshadow="0"
   inkscape:pageopacity="0"
   inkscape:pagecheckerboard="0"
   inkscape:deskcolor="#505050"
   inkscape:zoom="5.904196"
   inkscape:cx="34.890441"
   inkscape:cy="35.483239"
   inkscape:window-width="2556"
   inkscape:window-height="1386"
   inkscape:window-x="0"
   inkscape:window-y="0"
   inkscape:window-maximized="0"
   inkscape:current-layer="svg37" />
<style
   type="text/css"
   id="style1">
	.st0{fill:#FFFFFF;}
	.st1{fill:#002D3A;}
	.st2{display:none;}
	.st3{display:inline;fill:none;stroke:#52AFDA;stroke-miterlimit:10;}
</style>
<g
   id="Layer_1"
   transform="translate(-5.4665,-4.94)">
</g>
<g
   id="Layer_3"
   transform="translate(-5.4665,-4.94)">
	<g
   id="g16">
		<path
   class="st0"
   d="m 11.57,26.22 -0.99,2.21 0.83,0.92 -0.27,0.61 -3.31,-3.74 0.26,-0.59 5,-0.03 -0.28,0.62 z M 11,26.21 8.57,26.2 10.2,28 Z"
   id="path1" />
		<path
   class="st0"
   d="m 14.6,21.25 -1.37,1.99 0.65,1.06 -0.38,0.55 -2.58,-4.27 0.36,-0.53 4.92,0.87 -0.39,0.56 z m -0.55,-0.1 -2.39,-0.45 1.28,2.07 z"
   id="path2" />
		<path
   class="st0"
   d="m 13.94,16.68 0.45,-0.47 2.87,2.76 1.71,-1.78 0.41,0.39 -2.16,2.24 z"
   id="path3" />
		<path
   class="st0"
   d="m 18.49,13.17 -1.22,0.97 -0.35,-0.44 2.95,-2.33 0.35,0.44 -1.22,0.97 2.47,3.13 -0.5,0.4 z"
   id="path4" />
		<path
   class="st0"
   d="m 24.44,13.54 c -0.42,0 -0.81,-0.11 -1.16,-0.32 -0.35,-0.21 -0.64,-0.51 -0.84,-0.9 -0.21,-0.38 -0.31,-0.78 -0.29,-1.2 0.01,-0.41 0.14,-0.79 0.36,-1.15 0.23,-0.35 0.54,-0.64 0.95,-0.86 0.4,-0.22 0.81,-0.32 1.23,-0.32 0.42,0 0.81,0.11 1.16,0.32 0.35,0.21 0.63,0.51 0.84,0.9 0.21,0.39 0.31,0.79 0.29,1.2 -0.01,0.41 -0.13,0.79 -0.36,1.14 -0.23,0.35 -0.54,0.64 -0.94,0.85 -0.41,0.23 -0.82,0.34 -1.24,0.34 z m 1.64,-1.46 c 0.16,-0.26 0.25,-0.54 0.25,-0.85 0.01,-0.31 -0.07,-0.61 -0.22,-0.9 C 25.95,10.04 25.74,9.82 25.48,9.66 25.22,9.5 24.93,9.42 24.63,9.41 c -0.3,-0.01 -0.61,0.07 -0.9,0.23 -0.29,0.16 -0.52,0.37 -0.69,0.63 -0.17,0.26 -0.25,0.55 -0.26,0.86 -0.01,0.31 0.07,0.61 0.22,0.9 0.16,0.29 0.37,0.51 0.63,0.67 0.26,0.16 0.55,0.24 0.86,0.25 0.31,0.01 0.61,-0.07 0.91,-0.23 0.3,-0.16 0.52,-0.38 0.68,-0.64 z"
   id="path5" />
		<path
   class="st0"
   d="m 28.56,9.56 1.65,-0.58 0.18,0.51 -1.65,0.58 z"
   id="path6" />
		<path
   class="st0"
   d="m 33.83,8.52 0.33,1.54 -0.63,0.13 -0.33,-1.54 -2.39,-2.52 0.68,-0.15 1.93,2.04 0.92,-2.65 0.63,-0.14 z"
   id="path7" />
		<path
   class="st0"
   d="m 37.04,5.02 0.65,-0.04 0.23,3.98 2.46,-0.14 0.03,0.57 -3.11,0.18 z"
   id="path8" />
		<path
   class="st0"
   d="M 42.29,4.94 42.94,4.98 42.66,9.52 42.01,9.48 Z"
   id="path9" />
		<path
   class="st0"
   d="M 45.66,9.61 C 45.34,9.34 45.12,9 44.98,8.61 44.85,8.22 44.83,7.81 44.92,7.38 c 0.09,-0.43 0.28,-0.79 0.55,-1.1 0.28,-0.3 0.62,-0.52 1.02,-0.64 0.4,-0.12 0.83,-0.13 1.28,-0.04 0.45,0.09 0.83,0.28 1.15,0.55 0.32,0.27 0.54,0.6 0.67,0.99 0.13,0.39 0.15,0.8 0.06,1.23 -0.09,0.43 -0.28,0.8 -0.55,1.1 -0.27,0.3 -0.62,0.51 -1.02,0.63 -0.4,0.12 -0.83,0.13 -1.27,0.04 -0.44,-0.08 -0.83,-0.26 -1.15,-0.53 z m 2.2,-0.06 C 48.15,9.46 48.4,9.3 48.61,9.07 48.82,8.84 48.95,8.57 49.02,8.24 49.09,7.91 49.07,7.61 48.98,7.32 48.88,7.03 48.72,6.78 48.49,6.58 48.26,6.38 47.98,6.24 47.66,6.17 47.33,6.1 47.02,6.11 46.73,6.21 c -0.3,0.09 -0.55,0.25 -0.75,0.48 -0.21,0.23 -0.34,0.5 -0.41,0.83 -0.07,0.33 -0.05,0.63 0.04,0.92 0.1,0.29 0.26,0.54 0.49,0.75 0.23,0.2 0.51,0.34 0.84,0.41 0.32,0.06 0.63,0.05 0.92,-0.05 z"
   id="path10" />
		<path
   class="st0"
   d="m 55.34,8.61 c 0.2,0.39 0.21,0.81 0.02,1.27 -0.19,0.46 -0.5,0.75 -0.92,0.88 -0.42,0.13 -0.9,0.08 -1.45,-0.15 l -1.04,-0.44 -0.53,1.27 -0.6,-0.25 1.76,-4.2 1.64,0.69 c 0.54,0.23 0.91,0.54 1.12,0.93 z M 54.16,10.2 C 54.43,10.12 54.62,9.93 54.75,9.63 54.88,9.33 54.87,9.05 54.74,8.81 54.61,8.56 54.35,8.36 53.97,8.2 l -1.02,-0.43 -0.79,1.88 1.02,0.43 c 0.39,0.15 0.71,0.2 0.98,0.12 z"
   id="path11" />
		<path
   class="st0"
   d="m 58.06,9.59 0.56,0.33 -2.3,3.92 -0.56,-0.33 z"
   id="path12" />
		<path
   class="st0"
   d="m 58.48,15.12 c -0.19,-0.28 -0.3,-0.54 -0.34,-0.79 l 0.5,-0.26 c 0.04,0.23 0.14,0.46 0.3,0.71 0.16,0.24 0.35,0.45 0.57,0.62 0.3,0.23 0.56,0.35 0.79,0.36 0.23,0.01 0.4,-0.07 0.53,-0.23 0.09,-0.12 0.13,-0.26 0.11,-0.39 -0.02,-0.14 -0.08,-0.28 -0.16,-0.41 -0.09,-0.13 -0.22,-0.31 -0.4,-0.52 -0.22,-0.27 -0.39,-0.51 -0.51,-0.7 -0.12,-0.19 -0.18,-0.4 -0.2,-0.63 -0.01,-0.23 0.07,-0.46 0.24,-0.69 0.15,-0.19 0.33,-0.33 0.55,-0.4 0.22,-0.08 0.47,-0.08 0.75,-0.02 0.28,0.06 0.57,0.21 0.88,0.45 0.21,0.16 0.4,0.35 0.57,0.57 0.17,0.22 0.28,0.43 0.35,0.64 l -0.49,0.28 C 62.44,13.5 62.34,13.3 62.2,13.12 62.06,12.94 61.92,12.78 61.75,12.66 61.46,12.44 61.2,12.32 60.97,12.32 c -0.23,-0.01 -0.41,0.08 -0.54,0.24 -0.09,0.12 -0.13,0.26 -0.11,0.4 0.02,0.14 0.08,0.28 0.17,0.42 0.09,0.14 0.22,0.31 0.39,0.52 0.22,0.27 0.39,0.51 0.5,0.7 0.12,0.19 0.18,0.4 0.2,0.63 0.02,0.22 -0.06,0.45 -0.24,0.68 -0.14,0.19 -0.33,0.32 -0.55,0.4 -0.22,0.08 -0.47,0.08 -0.75,0.01 -0.28,-0.07 -0.57,-0.22 -0.88,-0.46 -0.26,-0.22 -0.49,-0.47 -0.68,-0.74 z"
   id="path13" />
		<path
   class="st0"
   d="m 65.35,15.94 -1.08,-1.12 0.41,-0.39 2.61,2.71 -0.41,0.39 -1.08,-1.13 -2.87,2.76 -0.45,-0.46 z"
   id="path14" />
		<path
   class="st0"
   d="m 65.57,21.92 c -0.04,-0.42 0.03,-0.81 0.21,-1.19 0.18,-0.38 0.45,-0.68 0.81,-0.93 0.36,-0.25 0.75,-0.38 1.16,-0.41 0.41,-0.02 0.8,0.06 1.18,0.25 0.38,0.19 0.69,0.48 0.95,0.86 0.25,0.38 0.4,0.77 0.44,1.19 0.04,0.42 -0.03,0.81 -0.21,1.18 -0.18,0.37 -0.45,0.68 -0.81,0.93 -0.36,0.25 -0.75,0.38 -1.16,0.41 -0.41,0.03 -0.8,-0.06 -1.17,-0.25 -0.37,-0.19 -0.69,-0.48 -0.94,-0.85 -0.27,-0.37 -0.42,-0.77 -0.46,-1.19 z m 1.62,1.49 c 0.27,0.14 0.57,0.19 0.87,0.17 0.3,-0.02 0.6,-0.12 0.87,-0.31 0.27,-0.18 0.48,-0.41 0.61,-0.69 0.13,-0.28 0.19,-0.57 0.17,-0.87 -0.02,-0.3 -0.13,-0.6 -0.32,-0.87 -0.19,-0.28 -0.42,-0.49 -0.7,-0.62 -0.28,-0.14 -0.57,-0.2 -0.88,-0.18 -0.31,0.02 -0.6,0.12 -0.87,0.31 -0.27,0.18 -0.48,0.42 -0.61,0.69 -0.13,0.28 -0.19,0.57 -0.16,0.88 0.03,0.31 0.13,0.6 0.32,0.88 0.2,0.27 0.43,0.48 0.7,0.61 z"
   id="path15" />
		<path
   class="st0"
   d="m 73.9,28.47 -4.2,1.76 -0.21,-0.49 2.07,-3.83 -3.13,1.31 -0.25,-0.6 4.2,-1.76 0.21,0.49 -2.07,3.83 3.13,-1.31 z"
   id="path16" />
	</g>
	<g
   id="g35">
		<path
   class="st0"
   d="m 5.48,46.18 c 0.03,-0.35 0.1,-0.64 0.22,-0.87 l 0.85,0.2 c -0.1,0.22 -0.17,0.47 -0.2,0.75 -0.03,0.28 -0.02,0.55 0.03,0.82 0.06,0.29 0.14,0.5 0.26,0.62 0.12,0.12 0.25,0.17 0.39,0.14 0.11,-0.02 0.19,-0.08 0.24,-0.18 0.05,-0.1 0.09,-0.21 0.11,-0.35 0.02,-0.14 0.03,-0.32 0.04,-0.55 0.01,-0.36 0.04,-0.65 0.08,-0.88 0.04,-0.23 0.13,-0.44 0.28,-0.63 0.15,-0.19 0.37,-0.31 0.67,-0.37 0.26,-0.05 0.51,-0.03 0.75,0.07 0.24,0.1 0.45,0.28 0.63,0.54 0.18,0.26 0.31,0.59 0.39,1 0.06,0.29 0.08,0.57 0.06,0.86 -0.01,0.29 -0.07,0.54 -0.15,0.77 L 9.28,47.95 C 9.43,47.49 9.47,47.06 9.39,46.64 9.33,46.35 9.24,46.15 9.12,46.03 9,45.91 8.86,45.87 8.71,45.9 8.56,45.93 8.46,46.03 8.42,46.21 8.38,46.39 8.35,46.64 8.34,46.98 8.33,47.34 8.3,47.63 8.26,47.86 8.22,48.09 8.13,48.3 7.99,48.49 7.82,48.67 7.6,48.8 7.3,48.86 7.04,48.91 6.8,48.88 6.56,48.78 6.32,48.68 6.11,48.5 5.93,48.24 5.75,47.98 5.62,47.65 5.54,47.24 5.47,46.88 5.45,46.53 5.48,46.18 Z"
   id="path17" />
		<path
   class="st0"
   d="M 8.49,53.46 7.75,51.48 6.7,51.44 6.32,50.43 l 4.97,0.3 0.37,0.97 -3.55,3.5 -0.39,-1.03 z M 9.12,52.87 10.5,51.58 8.62,51.52 Z m 2.5,-2.75 c 0.05,-0.11 0.13,-0.19 0.25,-0.23 0.12,-0.05 0.24,-0.04 0.35,0.01 0.11,0.05 0.19,0.14 0.23,0.26 0.05,0.12 0.04,0.24 -0.01,0.35 -0.05,0.11 -0.13,0.19 -0.26,0.23 -0.12,0.05 -0.24,0.04 -0.35,-0.01 -0.11,-0.05 -0.19,-0.13 -0.23,-0.26 -0.04,-0.13 -0.03,-0.24 0.02,-0.35 z m 0.46,1.23 c 0.05,-0.11 0.13,-0.19 0.26,-0.23 0.12,-0.05 0.24,-0.04 0.35,0.01 0.11,0.05 0.19,0.13 0.23,0.26 0.05,0.12 0.04,0.24 0,0.35 -0.05,0.11 -0.13,0.19 -0.25,0.23 -0.12,0.05 -0.24,0.04 -0.35,-0.01 -0.11,-0.05 -0.19,-0.14 -0.23,-0.26 -0.04,-0.12 -0.06,-0.24 -0.01,-0.35 z"
   id="path18" />
		<path
   class="st0"
   d="m 14.94,58.01 -3.9,2.34 -0.54,-0.9 1.6,-0.96 -1.06,-1.77 -1.6,0.96 -0.54,-0.9 3.9,-2.34 0.54,0.9 -1.54,0.92 1.06,1.77 1.54,-0.92 z"
   id="path19" />
		<path
   class="st0"
   d="M 14.85,62.29 13.97,62.25 13.1,63 l -0.69,-0.79 3.43,-2.98 0.69,0.79 -1.6,1.39 2.93,0.13 0.77,0.88 -2.77,-0.09 -0.59,3.16 -0.81,-0.93 z"
   id="path20" />
		<path
   class="st0"
   d="m 17.29,66.98 c -0.17,-0.4 -0.22,-0.8 -0.16,-1.21 0.06,-0.41 0.23,-0.79 0.51,-1.14 0.28,-0.35 0.62,-0.59 1.01,-0.74 0.39,-0.14 0.8,-0.17 1.22,-0.09 0.42,0.08 0.82,0.27 1.19,0.56 0.37,0.29 0.63,0.64 0.8,1.04 0.17,0.39 0.22,0.8 0.16,1.21 -0.06,0.41 -0.22,0.79 -0.5,1.14 -0.28,0.35 -0.62,0.59 -1.01,0.73 -0.39,0.14 -0.8,0.17 -1.22,0.1 -0.42,-0.08 -0.82,-0.27 -1.18,-0.56 -0.36,-0.29 -0.65,-0.64 -0.82,-1.04 z m 2.05,0.66 c 0.25,0.04 0.49,0.01 0.72,-0.08 0.24,-0.09 0.44,-0.25 0.62,-0.47 0.18,-0.22 0.29,-0.45 0.33,-0.7 0.04,-0.25 0.02,-0.49 -0.07,-0.72 -0.09,-0.23 -0.24,-0.43 -0.45,-0.6 -0.21,-0.17 -0.44,-0.27 -0.68,-0.31 -0.24,-0.04 -0.49,-0.01 -0.72,0.08 -0.24,0.09 -0.44,0.25 -0.62,0.47 -0.18,0.22 -0.29,0.45 -0.33,0.7 -0.04,0.25 -0.02,0.49 0.07,0.72 0.09,0.23 0.24,0.43 0.45,0.6 0.21,0.16 0.43,0.27 0.68,0.31 z m 1.23,-4.24 c -0.01,-0.12 0.02,-0.23 0.1,-0.33 0.08,-0.1 0.18,-0.16 0.3,-0.17 0.12,-0.01 0.23,0.02 0.33,0.11 0.1,0.08 0.16,0.18 0.17,0.3 0.01,0.12 -0.02,0.23 -0.1,0.33 -0.08,0.1 -0.18,0.16 -0.3,0.17 -0.12,0.01 -0.23,-0.02 -0.33,-0.1 -0.1,-0.09 -0.15,-0.19 -0.17,-0.31 z m 1.03,0.82 c -0.01,-0.12 0.02,-0.23 0.1,-0.33 0.08,-0.1 0.18,-0.16 0.3,-0.17 0.12,-0.01 0.23,0.02 0.33,0.1 0.1,0.08 0.16,0.18 0.17,0.3 0.01,0.12 -0.02,0.23 -0.1,0.33 -0.08,0.1 -0.18,0.16 -0.3,0.17 -0.12,0.01 -0.23,-0.02 -0.33,-0.11 -0.1,-0.09 -0.16,-0.17 -0.17,-0.29 z"
   id="path21" />
		<path
   class="st0"
   d="m 24.07,66.61 0.9,0.54 -2.34,3.9 -0.9,-0.54 z"
   id="path22" />
		<path
   class="st0"
   d="m 30.18,69.62 -1.79,4.18 -0.79,-0.34 -1,-3.43 -1.09,2.54 -0.96,-0.41 1.79,-4.18 0.8,0.34 0.99,3.43 1.09,-2.54 z"
   id="path23" />
		<path
   class="st0"
   d="m 31.06,74.52 c -0.3,-0.17 -0.54,-0.36 -0.7,-0.56 l 0.53,-0.69 c 0.16,0.18 0.35,0.35 0.6,0.5 0.24,0.15 0.49,0.25 0.75,0.31 0.29,0.07 0.52,0.08 0.68,0.03 0.16,-0.05 0.26,-0.15 0.29,-0.29 0.03,-0.11 0,-0.2 -0.06,-0.29 -0.07,-0.09 -0.16,-0.17 -0.28,-0.24 -0.12,-0.07 -0.28,-0.16 -0.49,-0.26 -0.32,-0.16 -0.58,-0.31 -0.77,-0.44 -0.2,-0.13 -0.35,-0.3 -0.46,-0.52 -0.11,-0.22 -0.13,-0.47 -0.06,-0.76 0.06,-0.26 0.19,-0.47 0.38,-0.65 0.19,-0.18 0.44,-0.29 0.75,-0.35 0.31,-0.05 0.67,-0.03 1.07,0.06 0.28,0.07 0.55,0.17 0.8,0.3 0.25,0.13 0.47,0.29 0.64,0.46 l -0.5,0.7 C 33.88,71.5 33.5,71.29 33.09,71.19 32.8,71.12 32.58,71.12 32.42,71.18 c -0.16,0.06 -0.26,0.17 -0.29,0.32 -0.04,0.15 0.02,0.28 0.16,0.4 0.14,0.11 0.36,0.24 0.67,0.39 0.32,0.16 0.57,0.31 0.77,0.44 0.2,0.13 0.35,0.3 0.46,0.51 0.11,0.21 0.13,0.46 0.06,0.76 -0.06,0.25 -0.19,0.47 -0.38,0.64 -0.19,0.17 -0.44,0.29 -0.75,0.34 -0.31,0.05 -0.67,0.03 -1.07,-0.06 -0.36,-0.1 -0.69,-0.22 -0.99,-0.4 z"
   id="path24" />
		<path
   class="st0"
   d="m 36.27,71 1.05,0.12 -0.52,4.52 -1.05,-0.12 z"
   id="path25" />
		<path
   class="st0"
   d="m 43.05,71.23 0.08,4.55 -0.86,0.02 -2.32,-2.72 0.05,2.76 -1.04,0.02 -0.08,-4.55 0.87,-0.02 2.31,2.72 -0.05,-2.76 z"
   id="path26" />
		<path
   class="st0"
   d="m 46.35,75.11 c -0.41,-0.12 -0.76,-0.34 -1.04,-0.64 -0.28,-0.31 -0.47,-0.68 -0.56,-1.12 -0.09,-0.44 -0.07,-0.85 0.07,-1.25 0.14,-0.39 0.37,-0.73 0.7,-1 0.33,-0.28 0.73,-0.46 1.19,-0.56 0.46,-0.1 0.9,-0.08 1.31,0.04 0.41,0.12 0.76,0.34 1.04,0.64 0.29,0.31 0.47,0.68 0.56,1.11 0.09,0.44 0.07,0.85 -0.07,1.25 -0.14,0.39 -0.37,0.73 -0.7,1.01 -0.33,0.28 -0.72,0.46 -1.19,0.56 -0.46,0.1 -0.9,0.09 -1.31,-0.04 z m -0.7,-4.81 c -0.1,-0.07 -0.17,-0.16 -0.19,-0.29 -0.03,-0.13 -0.01,-0.24 0.06,-0.34 0.07,-0.1 0.17,-0.16 0.29,-0.19 0.12,-0.03 0.24,-0.01 0.34,0.06 0.1,0.07 0.16,0.16 0.19,0.29 0.03,0.13 0.01,0.24 -0.06,0.34 -0.07,0.1 -0.16,0.16 -0.29,0.19 -0.13,0.03 -0.24,0.01 -0.34,-0.06 z m 2.5,3.65 c 0.19,-0.17 0.32,-0.37 0.39,-0.61 0.08,-0.24 0.08,-0.5 0.03,-0.78 -0.05,-0.28 -0.17,-0.51 -0.33,-0.7 -0.17,-0.19 -0.37,-0.33 -0.6,-0.4 -0.23,-0.07 -0.49,-0.09 -0.75,-0.03 -0.26,0.05 -0.49,0.16 -0.68,0.33 -0.19,0.17 -0.32,0.37 -0.39,0.61 -0.08,0.24 -0.08,0.5 -0.03,0.78 0.06,0.28 0.17,0.51 0.33,0.7 0.17,0.19 0.37,0.33 0.6,0.4 0.24,0.08 0.49,0.09 0.75,0.03 0.27,-0.06 0.49,-0.17 0.68,-0.33 z m -1.21,-3.91 c -0.1,-0.07 -0.16,-0.16 -0.19,-0.29 -0.03,-0.13 -0.01,-0.24 0.06,-0.34 0.07,-0.1 0.16,-0.16 0.29,-0.19 0.13,-0.03 0.24,-0.01 0.34,0.06 0.1,0.07 0.17,0.16 0.19,0.29 0.03,0.13 0.01,0.24 -0.06,0.34 -0.07,0.1 -0.17,0.16 -0.29,0.19 -0.13,0.02 -0.24,0 -0.34,-0.06 z"
   id="path27" />
		<path
   class="st0"
   d="m 52.87,73.34 c -0.43,-0.04 -0.81,-0.18 -1.15,-0.43 -0.34,-0.25 -0.59,-0.57 -0.76,-0.99 -0.17,-0.41 -0.23,-0.82 -0.17,-1.24 0.06,-0.41 0.22,-0.79 0.49,-1.12 0.27,-0.33 0.62,-0.59 1.06,-0.78 0.44,-0.18 0.87,-0.25 1.29,-0.21 0.43,0.04 0.81,0.18 1.15,0.43 0.34,0.25 0.59,0.57 0.77,0.98 0.17,0.41 0.23,0.82 0.17,1.24 -0.06,0.41 -0.23,0.79 -0.49,1.12 -0.27,0.33 -0.62,0.59 -1.06,0.78 -0.44,0.19 -0.87,0.26 -1.3,0.22 z m -1.61,-4.58 c -0.11,-0.04 -0.19,-0.13 -0.25,-0.25 -0.06,-0.12 -0.05,-0.24 0,-0.35 0.05,-0.11 0.13,-0.19 0.25,-0.24 0.12,-0.05 0.24,-0.05 0.35,-0.01 0.11,0.04 0.19,0.13 0.24,0.25 0.05,0.12 0.05,0.24 0.01,0.35 -0.04,0.11 -0.13,0.19 -0.25,0.24 -0.12,0.05 -0.24,0.05 -0.35,0.01 z m 3.16,3.09 c 0.15,-0.2 0.24,-0.42 0.27,-0.67 0.03,-0.25 -0.01,-0.51 -0.12,-0.77 -0.11,-0.26 -0.26,-0.47 -0.46,-0.62 -0.2,-0.16 -0.42,-0.25 -0.67,-0.28 -0.25,-0.03 -0.5,0.01 -0.74,0.11 -0.25,0.1 -0.45,0.25 -0.6,0.45 -0.15,0.2 -0.24,0.42 -0.27,0.67 -0.03,0.25 0.01,0.51 0.12,0.77 0.11,0.26 0.26,0.47 0.46,0.62 0.2,0.16 0.42,0.25 0.67,0.28 0.25,0.03 0.5,-0.01 0.74,-0.11 0.25,-0.1 0.44,-0.25 0.6,-0.45 z m -1.95,-3.61 c -0.11,-0.04 -0.19,-0.13 -0.24,-0.25 -0.05,-0.12 -0.05,-0.24 -0.01,-0.35 0.04,-0.11 0.13,-0.19 0.25,-0.24 0.12,-0.05 0.24,-0.05 0.35,-0.01 0.11,0.04 0.19,0.13 0.25,0.25 0.05,0.12 0.05,0.24 0,0.35 -0.05,0.11 -0.13,0.19 -0.25,0.24 -0.12,0.06 -0.24,0.06 -0.35,0.01 z"
   id="path28" />
		<path
   class="st0"
   d="m 60.64,69.49 -1.43,-0.58 -0.04,0.03 -0.77,0.5 0.69,1.06 -0.88,0.58 -2.49,-3.81 1.65,-1.08 c 0.34,-0.22 0.67,-0.36 0.99,-0.41 0.32,-0.05 0.62,-0.02 0.89,0.1 0.27,0.12 0.5,0.32 0.68,0.6 0.19,0.28 0.28,0.57 0.27,0.87 -0.01,0.3 -0.09,0.58 -0.27,0.85 l 1.65,0.67 z m -2.13,-2.77 c -0.21,-0.02 -0.45,0.05 -0.72,0.22 l -0.72,0.47 0.87,1.33 0.72,-0.47 c 0.26,-0.17 0.43,-0.36 0.49,-0.57 0.06,-0.21 0.02,-0.41 -0.11,-0.62 -0.14,-0.22 -0.32,-0.34 -0.53,-0.36 z"
   id="path29" />
		<path
   class="st0"
   d="m 60.06,64.2 0.8,-0.68 2.96,3.46 -0.8,0.68 z"
   id="path30" />
		<path
   class="st0"
   d="m 65.23,63.09 0.06,0.88 0.85,0.77 -0.7,0.78 -3.38,-3.05 0.7,-0.78 1.58,1.42 -0.23,-2.92 0.78,-0.87 0.24,2.76 3.21,0.21 -0.82,0.91 z"
   id="path31" />
		<path
   class="st0"
   d="m 65.5,58.39 0.6,-0.87 3.74,2.59 -0.6,0.87 z"
   id="path32" />
		<path
   class="st0"
   d="m 66.99,56.15 0.5,-0.93 3.26,1.74 1.07,-2.01 0.76,0.4 -1.57,2.94 z"
   id="path33" />
		<path
   class="st0"
   d="m 69.95,52 -0.51,1.36 -0.8,-0.3 1.39,-3.71 0.8,0.3 -0.51,1.36 3.46,1.29 -0.37,0.99 z"
   id="path34" />
		<path
   class="st0"
   d="m 74.36,46.33 -0.43,2.07 0.87,0.59 -0.22,1.06 -4.05,-2.9 0.21,-1.02 4.87,-1.08 -0.22,1.08 z m -0.85,0.17 -1.85,0.36 1.56,1.06 z"
   id="path35" />
	</g>
	<g
   id="g37">
		<g
   id="g36">
			<polygon
   class="st0"
   points="40.44,57.52 40.44,59.94 44.72,57.55 44.72,55.1 "
   id="polygon35" />
		</g>
		<path
   class="st0"
   d="m 40.44,52.22 -1.88,-1.05 c -1.53,-1.02 -3.43,-2.75 -3.54,-5.06 h -0.01 c 0,-0.07 0,-0.13 0,-0.2 0,0 0,0 0,0 v 0 c 0.12,-2.9 2.5,-5.21 5.42,-5.21 v -0.66 -0.5 -12.77 c -7.17,0 -13.01,5.67 -13.3,12.76 v 0 c 0,0 0,0 0,0.01 -0.01,0.16 0.01,0.49 0.01,0.49 0.27,5.71 5.06,9.99 8.82,12.48 0.03,0.02 4.47,2.59 4.47,2.59 z"
   id="path36" />
		<path
   class="st0"
   d="m 63.59,40.36 c 0,-1.91 -0.23,-3.77 -0.67,-5.54 l 3.23,-1.83 c -0.2,-0.68 -0.42,-1.36 -0.67,-2.03 L 51.07,39.12 48.94,37.91 64.63,28.96 C 64.62,28.93 64.6,28.9 64.59,28.87 l -0.98,-1.73 -16.79,9.58 -2.1,-1.19 v 0 L 62.58,25.36 c -0.39,-0.58 -0.81,-1.15 -1.25,-1.7 l -16.61,9.45 v -2.39 l 15.25,-8.63 c -0.21,-0.22 -0.42,-0.44 -0.63,-0.65 -0.3,-0.3 -0.61,-0.59 -0.92,-0.88 l -3.35,1.9 c -2.42,-1.98 -5.26,-3.48 -8.36,-4.35 v -3.77 c -2.06,-0.5 -4.17,-0.75 -6.33,-0.75 -2.12,0 -4.2,0.24 -6.22,0.72 v 3.79 c -3.84,1.08 -7.28,3.13 -10.03,5.86 L 20.8,22.08 c -2.17,2.31 -3.89,4.96 -5.13,7.88 -0.42,0.99 -0.78,2 -1.07,3.03 l 3.35,1.89 c -0.43,1.76 -0.66,3.6 -0.66,5.49 0,1.9 0.23,3.75 0.66,5.52 l -3.36,1.9 c 0.29,1.03 0.65,2.04 1.07,3.03 1.23,2.92 2.96,5.57 5.13,7.88 l 3.35,-1.9 c 2.75,2.72 6.17,4.76 10,5.83 v 3.83 c 2.02,0.48 4.1,0.72 6.22,0.72 0.1,0 0.2,0 0.3,0 l 4.04,-2.27 v -4.96 l -4.28,2.41 V 59.93 L 34.15,57.56 C 27.13,55 22.11,48.27 22.11,40.37 c 0,-10.1 8.19,-18.29 18.29,-18.29 3.7,0 7.14,1.1 10.02,2.99 l -5.74,3.25 v 0 0 L 42.6,27.07 v 2.42 21.67 2.42 l 2.08,-1.25 v 0 0 0 0 l 13.82,7.78 c 0.27,-0.25 0.54,-0.51 0.8,-0.77 0.25,-0.25 0.5,-0.51 0.74,-0.77 L 44.68,49.92 v -2.4 l 16.72,9.44 c 0.44,-0.55 0.85,-1.12 1.24,-1.71 L 44.71,45.13 v 0 l 2.12,-1.2 16.94,9.57 c 0.34,-0.61 0.66,-1.23 0.95,-1.87 l -15.76,-8.9 2.11,-1.2 14.45,8.17 c 0.25,-0.67 0.47,-1.35 0.66,-2.03 l -3.25,-1.84 c 0.43,-1.75 0.66,-3.58 0.66,-5.47 z m -16.76,1.16 -2.12,-1.19 v 0 l 2.11,-1.2 2.12,1.2 z m 11.68,1.81 -5.31,-3 5.3,-3 c 0.17,0.99 0.25,2 0.25,3.04 0,1 -0.08,1.99 -0.24,2.96 z"
   id="path37" />
	</g>
</g>
<g
   id="guides"
   class="st2"
   transform="translate(-5.4665,-4.94)">
</g>
</svg>
